<svg width="375" height="109" viewBox="0 0 375 109" fill="none" xmlns="http://www.w3.org/2000/svg">
<path d="M358.748 0H375L331.661 74.6095V108.304H313.604V69.1943L353.933 0H358.748ZM303.371 54.1521C303.371 61.3724 302.167 68.5926 299.157 75.2112C296.148 81.8298 292.536 87.8467 287.721 92.6602C282.905 97.4738 276.886 101.686 270.265 104.092C263.644 107.101 256.421 108.304 249.197 108.304H213.082L223.917 90.2535H249.197C254.013 90.2535 258.828 89.0501 263.042 87.245C267.255 85.44 271.469 83.0332 274.478 79.4231C277.488 75.8129 280.498 72.2028 282.303 67.9909C284.109 63.7791 285.313 58.9656 285.313 54.1521C285.313 49.3386 284.109 44.5251 282.303 40.3132C280.498 36.1014 278.09 31.8896 274.478 28.8811C271.469 25.8727 267.255 22.8642 263.042 21.0591C258.828 19.2541 254.013 18.0507 249.197 18.0507H223.315L213.082 0H249.197C256.421 0 263.644 1.20338 270.265 4.21183C276.886 7.22028 282.905 10.8304 287.721 15.6439C292.536 20.4575 296.75 26.4744 299.759 33.0929C302.167 39.7115 303.371 46.9318 303.371 54.1521ZM93.9005 0L148.676 54.1521L202.849 0V108.906H184.791V43.3217L148.074 79.4231L93.2986 24.6693V0H93.9005ZM61.3965 69.1943L83.6677 108.304H62.6003L31.3002 54.1521H47.5522C52.3676 54.1521 56.5811 52.347 60.1926 48.7369C63.8042 45.1267 65.61 40.9149 65.61 36.1014C65.61 31.2879 63.8042 27.076 60.1926 23.4659C56.5811 19.8558 52.3676 18.0507 47.5522 18.0507H11.4366H10.8347L0 0H47.5522C57.183 0 66.2119 3.61014 72.8331 10.8304C80.0562 18.0507 83.6677 26.4744 83.6677 36.1014C83.6677 43.9234 81.862 50.5419 77.0465 56.5588C73.435 62.5757 68.0177 66.7876 61.3965 69.1943Z" fill="black"/>
</svg>
